<?xml version="1.0" encoding="UTF-8" standalone="no"?>
<!DOCTYPE svg PUBLIC "-//W3C//DTD SVG 1.1//EN"
 "http://www.w3.org/Graphics/SVG/1.1/DTD/svg11.dtd">
<!-- Generated by graphviz version 2.40.1 (0)
 -->
<!-- Title: snakemake_dag Pages: 1 -->
<svg width="1383pt" height="764pt"
 viewBox="0.00 0.00 1383.00 764.00" xmlns="http://www.w3.org/2000/svg" xmlns:xlink="http://www.w3.org/1999/xlink">
<g id="graph0" class="graph" transform="scale(1 1) rotate(0) translate(4 760)">
<title>snakemake_dag</title>
<polygon fill="#ffffff" stroke="transparent" points="-4,4 -4,-760 1379,-760 1379,4 -4,4"/>
<!-- 0 -->
<g id="node1" class="node">
<title>0</title>
<path fill="none" stroke="#a7d856" stroke-width="2" d="M440,-36C440,-36 410,-36 410,-36 404,-36 398,-30 398,-24 398,-24 398,-12 398,-12 398,-6 404,0 410,0 410,0 440,0 440,0 446,0 452,-6 452,-12 452,-12 452,-24 452,-24 452,-30 446,-36 440,-36"/>
<text text-anchor="middle" x="425" y="-15.5" font-family="sans" font-size="10.00" fill="#000000">all</text>
</g>
<!-- 1 -->
<g id="node2" class="node">
<title>1</title>
<path fill="none" stroke="#5673d8" stroke-width="2" d="M849.5,-612C849.5,-612 766.5,-612 766.5,-612 760.5,-612 754.5,-606 754.5,-600 754.5,-600 754.5,-588 754.5,-588 754.5,-582 760.5,-576 766.5,-576 766.5,-576 849.5,-576 849.5,-576 855.5,-576 861.5,-582 861.5,-588 861.5,-588 861.5,-600 861.5,-600 861.5,-606 855.5,-612 849.5,-612"/>
<text text-anchor="middle" x="808" y="-591.5" font-family="sans" font-size="10.00" fill="#000000">STAR_make_index</text>
</g>
<!-- 1&#45;&gt;0 -->
<g id="edge9" class="edge">
<title>1&#45;&gt;0</title>
<path fill="none" stroke="#c0c0c0" stroke-width="2" d="M817.3313,-575.9025C830.2471,-549.1296 852,-497.0538 852,-450 852,-450 852,-450 852,-378 852,-337.1184 857.8967,-320.4262 833,-288 768.361,-203.8122 693.4088,-256.6611 620,-180 583.5452,-141.9301 609.5825,-107.9119 571,-72 540.7436,-43.8379 494.5264,-30.0516 462.2198,-23.5158"/>
<polygon fill="#c0c0c0" stroke="#c0c0c0" stroke-width="2" points="462.7324,-20.0509 452.2573,-21.6395 461.4368,-26.9299 462.7324,-20.0509"/>
</g>
<!-- 4 -->
<g id="node5" class="node">
<title>4</title>
<path fill="none" stroke="#56b9d8" stroke-width="2" d="M345.5,-540C345.5,-540 298.5,-540 298.5,-540 292.5,-540 286.5,-534 286.5,-528 286.5,-528 286.5,-516 286.5,-516 286.5,-510 292.5,-504 298.5,-504 298.5,-504 345.5,-504 345.5,-504 351.5,-504 357.5,-510 357.5,-516 357.5,-516 357.5,-528 357.5,-528 357.5,-534 351.5,-540 345.5,-540"/>
<text text-anchor="middle" x="322" y="-519.5" font-family="sans" font-size="10.00" fill="#000000">STAR_Align</text>
</g>
<!-- 1&#45;&gt;4 -->
<g id="edge14" class="edge">
<title>1&#45;&gt;4</title>
<path fill="none" stroke="#c0c0c0" stroke-width="2" d="M754.1326,-586.0196C657.7549,-571.7415 457.4992,-542.074 367.5167,-528.7432"/>
<polygon fill="#c0c0c0" stroke="#c0c0c0" stroke-width="2" points="368.0217,-525.2799 357.6167,-527.2765 366.9958,-532.2043 368.0217,-525.2799"/>
</g>
<!-- 2 -->
<g id="node3" class="node">
<title>2</title>
<path fill="none" stroke="#70d856" stroke-width="2" d="M1136.5,-756C1136.5,-756 1035.5,-756 1035.5,-756 1029.5,-756 1023.5,-750 1023.5,-744 1023.5,-744 1023.5,-732 1023.5,-732 1023.5,-726 1029.5,-720 1035.5,-720 1035.5,-720 1136.5,-720 1136.5,-720 1142.5,-720 1148.5,-726 1148.5,-732 1148.5,-732 1148.5,-744 1148.5,-744 1148.5,-750 1142.5,-756 1136.5,-756"/>
<text text-anchor="middle" x="1086" y="-735.5" font-family="sans" font-size="10.00" fill="#000000">DownloadFastaAndGtf</text>
</g>
<!-- 2&#45;&gt;1 -->
<g id="edge12" class="edge">
<title>2&#45;&gt;1</title>
<path fill="none" stroke="#c0c0c0" stroke-width="2" d="M1023.3593,-731.2038C959.7193,-723.1107 866.8114,-707.6406 840,-684 822.2867,-668.3815 814.3782,-642.2897 810.8474,-622.2096"/>
<polygon fill="#c0c0c0" stroke="#c0c0c0" stroke-width="2" points="814.271,-621.4367 809.3364,-612.0612 807.3473,-622.4676 814.271,-621.4367"/>
</g>
<!-- 3 -->
<g id="node4" class="node">
<title>3</title>
<path fill="none" stroke="#56d8d8" stroke-width="2" d="M919.5,-684C919.5,-684 860.5,-684 860.5,-684 854.5,-684 848.5,-678 848.5,-672 848.5,-672 848.5,-660 848.5,-660 848.5,-654 854.5,-648 860.5,-648 860.5,-648 919.5,-648 919.5,-648 925.5,-648 931.5,-654 931.5,-660 931.5,-660 931.5,-672 931.5,-672 931.5,-678 925.5,-684 919.5,-684"/>
<text text-anchor="middle" x="890" y="-663.5" font-family="sans" font-size="10.00" fill="#000000">faidxGenome</text>
</g>
<!-- 2&#45;&gt;3 -->
<g id="edge13" class="edge">
<title>2&#45;&gt;3</title>
<path fill="none" stroke="#c0c0c0" stroke-width="2" d="M1036.7939,-719.9243C1007.6563,-709.2207 970.7926,-695.6789 941.2963,-684.8435"/>
<polygon fill="#c0c0c0" stroke="#c0c0c0" stroke-width="2" points="942.1911,-681.4436 931.5975,-681.2807 939.7773,-688.0143 942.1911,-681.4436"/>
</g>
<!-- 9 -->
<g id="node10" class="node">
<title>9</title>
<path fill="none" stroke="#56d873" stroke-width="2" d="M1080.5,-468C1080.5,-468 1029.5,-468 1029.5,-468 1023.5,-468 1017.5,-462 1017.5,-456 1017.5,-456 1017.5,-444 1017.5,-444 1017.5,-438 1023.5,-432 1029.5,-432 1029.5,-432 1080.5,-432 1080.5,-432 1086.5,-432 1092.5,-438 1092.5,-444 1092.5,-444 1092.5,-456 1092.5,-456 1092.5,-462 1086.5,-468 1080.5,-468"/>
<text text-anchor="middle" x="1055" y="-447.5" font-family="sans" font-size="10.00" fill="#000000">GetBasicGtf</text>
</g>
<!-- 2&#45;&gt;9 -->
<g id="edge21" class="edge">
<title>2&#45;&gt;9</title>
<path fill="none" stroke="#c0c0c0" stroke-width="2" d="M1084.0608,-719.9843C1078.8198,-671.2939 1064.3426,-536.7961 1058.0201,-478.0573"/>
<polygon fill="#c0c0c0" stroke="#c0c0c0" stroke-width="2" points="1061.4887,-477.5768 1056.9385,-468.0089 1054.5289,-478.3261 1061.4887,-477.5768"/>
</g>
<!-- 13 -->
<g id="node14" class="node">
<title>13</title>
<path fill="none" stroke="#56d89a" stroke-width="2" d="M178,-396C178,-396 102,-396 102,-396 96,-396 90,-390 90,-384 90,-384 90,-372 90,-372 90,-366 96,-360 102,-360 102,-360 178,-360 178,-360 184,-360 190,-366 190,-372 190,-372 190,-384 190,-384 190,-390 184,-396 178,-396"/>
<text text-anchor="middle" x="140" y="-375.5" font-family="sans" font-size="10.00" fill="#000000">QualimapRnaseq</text>
</g>
<!-- 2&#45;&gt;13 -->
<g id="edge31" class="edge">
<title>2&#45;&gt;13</title>
<path fill="none" stroke="#c0c0c0" stroke-width="2" d="M1023.3678,-737.2463C833.7254,-734.5393 274.3523,-723.2765 203,-684 159.7747,-660.2063 138,-643.3413 138,-594 138,-594 138,-594 138,-522 138,-481.8721 138.7861,-435.4602 139.3726,-406.416"/>
<polygon fill="#c0c0c0" stroke="#c0c0c0" stroke-width="2" points="142.8766,-406.255 139.5856,-396.1843 135.8782,-406.1092 142.8766,-406.255"/>
</g>
<!-- 20 -->
<g id="node21" class="node">
<title>20</title>
<path fill="none" stroke="#c6d856" stroke-width="2" d="M933,-108C933,-108 747,-108 747,-108 741,-108 735,-102 735,-96 735,-96 735,-84 735,-84 735,-78 741,-72 747,-72 747,-72 933,-72 933,-72 939,-72 945,-78 945,-84 945,-84 945,-96 945,-96 945,-102 939,-108 933,-108"/>
<text text-anchor="middle" x="840" y="-87.5" font-family="sans" font-size="10.00" fill="#000000">leafcutter2_ClassifyJuncs_ClusterPerInd</text>
</g>
<!-- 2&#45;&gt;20 -->
<g id="edge45" class="edge">
<title>2&#45;&gt;20</title>
<path fill="none" stroke="#c0c0c0" stroke-width="2" d="M1092.1513,-719.9338C1113.3395,-657.0848 1182,-448.0205 1182,-378 1182,-378 1182,-378 1182,-306 1182,-265.1184 1189.4446,-247.1767 1163,-216 1130.3224,-177.475 1001.6341,-135.3007 916.8882,-110.8252"/>
<polygon fill="#c0c0c0" stroke="#c0c0c0" stroke-width="2" points="917.6145,-107.3925 907.0373,-108.0025 915.6863,-114.1217 917.6145,-107.3925"/>
</g>
<!-- 22 -->
<g id="node23" class="node">
<title>22</title>
<path fill="none" stroke="#d88d56" stroke-width="2" d="M1363,-180C1363,-180 1149,-180 1149,-180 1143,-180 1137,-174 1137,-168 1137,-168 1137,-156 1137,-156 1137,-150 1143,-144 1149,-144 1149,-144 1363,-144 1363,-144 1369,-144 1375,-150 1375,-156 1375,-156 1375,-168 1375,-168 1375,-174 1369,-180 1363,-180"/>
<text text-anchor="middle" x="1256" y="-159.5" font-family="sans" font-size="10.00" fill="#000000">Add_splice_site_scores_to_regtools_annotate</text>
</g>
<!-- 2&#45;&gt;22 -->
<g id="edge50" class="edge">
<title>2&#45;&gt;22</title>
<path fill="none" stroke="#c0c0c0" stroke-width="2" d="M1121.2069,-719.8208C1160.9088,-696.5064 1220,-652.0547 1220,-594 1220,-594 1220,-594 1220,-306 1220,-264.5072 1234.2416,-218.2433 1244.8098,-189.6245"/>
<polygon fill="#c0c0c0" stroke="#c0c0c0" stroke-width="2" points="1248.0824,-190.8654 1248.3653,-180.2743 1241.5395,-188.3773 1248.0824,-190.8654"/>
</g>
<!-- 23 -->
<g id="node24" class="node">
<title>23</title>
<path fill="none" stroke="#56a2d8" stroke-width="2" d="M1141.5,-252C1141.5,-252 968.5,-252 968.5,-252 962.5,-252 956.5,-246 956.5,-240 956.5,-240 956.5,-228 956.5,-228 956.5,-222 962.5,-216 968.5,-216 968.5,-216 1141.5,-216 1141.5,-216 1147.5,-216 1153.5,-222 1153.5,-228 1153.5,-228 1153.5,-240 1153.5,-240 1153.5,-246 1147.5,-252 1141.5,-252"/>
<text text-anchor="middle" x="1055" y="-231.5" font-family="sans" font-size="10.00" fill="#000000">AnnotateConcatedUniqJuncFile_basic</text>
</g>
<!-- 2&#45;&gt;23 -->
<g id="edge52" class="edge">
<title>2&#45;&gt;23</title>
<path fill="none" stroke="#c0c0c0" stroke-width="2" d="M1099.4164,-719.7782C1106.3596,-709.6548 1114.5083,-696.5919 1120,-684 1136.5494,-646.0541 1144,-635.3978 1144,-594 1144,-594 1144,-594 1144,-378 1144,-330.9216 1109.1528,-286.3783 1083.0685,-259.6306"/>
<polygon fill="#c0c0c0" stroke="#c0c0c0" stroke-width="2" points="1085.2005,-256.8147 1075.6421,-252.2445 1080.2643,-261.7779 1085.2005,-256.8147"/>
</g>
<!-- 25 -->
<g id="node26" class="node">
<title>25</title>
<path fill="none" stroke="#d8cb56" stroke-width="2" d="M1326,-540C1326,-540 1260,-540 1260,-540 1254,-540 1248,-534 1248,-528 1248,-528 1248,-516 1248,-516 1248,-510 1254,-504 1260,-504 1260,-504 1326,-504 1326,-504 1332,-504 1338,-510 1338,-516 1338,-516 1338,-528 1338,-528 1338,-534 1332,-540 1326,-540"/>
<text text-anchor="middle" x="1293" y="-519.5" font-family="sans" font-size="10.00" fill="#000000">Extract_introns</text>
</g>
<!-- 2&#45;&gt;25 -->
<g id="edge56" class="edge">
<title>2&#45;&gt;25</title>
<path fill="none" stroke="#c0c0c0" stroke-width="2" d="M1148.765,-727.7433C1177.9582,-720.0848 1211.1852,-706.8283 1234,-684 1270.6249,-647.3535 1284.6955,-586.2015 1289.9678,-550.4365"/>
<polygon fill="#c0c0c0" stroke="#c0c0c0" stroke-width="2" points="1293.4793,-550.5832 1291.3369,-540.2073 1286.5412,-549.6546 1293.4793,-550.5832"/>
</g>
<!-- 3&#45;&gt;1 -->
<g id="edge11" class="edge">
<title>3&#45;&gt;1</title>
<path fill="none" stroke="#c0c0c0" stroke-width="2" d="M869.3079,-647.8314C859.3052,-639.0485 847.145,-628.3712 836.3001,-618.8489"/>
<polygon fill="#c0c0c0" stroke="#c0c0c0" stroke-width="2" points="838.5092,-616.1308 828.6854,-612.1628 833.8906,-621.3909 838.5092,-616.1308"/>
</g>
<!-- 14 -->
<g id="node15" class="node">
<title>14</title>
<path fill="none" stroke="#61d856" stroke-width="2" d="M252,-252C252,-252 12,-252 12,-252 6,-252 0,-246 0,-240 0,-240 0,-228 0,-228 0,-222 6,-216 12,-216 12,-216 252,-216 252,-216 258,-216 264,-222 264,-228 264,-228 264,-240 264,-240 264,-246 258,-252 252,-252"/>
<text text-anchor="middle" x="132" y="-231.5" font-family="sans" font-size="10.00" fill="#000000">MakeBigwigs_NormalizedToGenomewideCoverage</text>
</g>
<!-- 3&#45;&gt;14 -->
<g id="edge33" class="edge">
<title>3&#45;&gt;14</title>
<path fill="none" stroke="#c0c0c0" stroke-width="2" d="M848.2897,-664.7065C719.8102,-660.4055 331.4381,-644.9501 210,-612 121.369,-587.9515 24,-613.8356 24,-522 24,-522 24,-522 24,-378 24,-328.0854 66.0434,-284.3996 97.6658,-258.6011"/>
<polygon fill="#c0c0c0" stroke="#c0c0c0" stroke-width="2" points="100.185,-261.071 105.8562,-252.1217 95.842,-255.5811 100.185,-261.071"/>
</g>
<!-- 3&#45;&gt;20 -->
<g id="edge44" class="edge">
<title>3&#45;&gt;20</title>
<path fill="none" stroke="#c0c0c0" stroke-width="2" d="M890,-647.8146C890,-620.4983 890,-567.25 890,-522 890,-522 890,-522 890,-306 890,-233.8342 930.6302,-209.8024 901,-144 895.8733,-132.6148 887.0283,-122.6602 877.6392,-114.5035"/>
<polygon fill="#c0c0c0" stroke="#c0c0c0" stroke-width="2" points="879.6718,-111.646 869.6941,-108.0828 875.2719,-117.0905 879.6718,-111.646"/>
</g>
<!-- 3&#45;&gt;22 -->
<g id="edge49" class="edge">
<title>3&#45;&gt;22</title>
<path fill="none" stroke="#c0c0c0" stroke-width="2" d="M898.0588,-647.7668C909.2134,-620.8248 928,-568.5405 928,-522 928,-522 928,-522 928,-306 928,-265.0242 918.3797,-244.3134 948,-216 973.8146,-191.3244 1054.4414,-177.7492 1126.725,-170.3822"/>
<polygon fill="#c0c0c0" stroke="#c0c0c0" stroke-width="2" points="1127.254,-173.8471 1136.8626,-169.3834 1126.5676,-166.8808 1127.254,-173.8471"/>
</g>
<!-- 4&#45;&gt;0 -->
<g id="edge1" class="edge">
<title>4&#45;&gt;0</title>
<path fill="none" stroke="#c0c0c0" stroke-width="2" d="M357.807,-515.3511C413.2303,-502.9175 518.0779,-470.3568 563,-396 571.2736,-382.3052 571.3734,-373.634 563,-360 544.4842,-329.8517 517.275,-348.7574 492,-324 459.6146,-292.2778 444,-279.3333 444,-234 444,-234 444,-234 444,-162 444,-121.5282 436.532,-75.2037 430.96,-46.2725"/>
<polygon fill="#c0c0c0" stroke="#c0c0c0" stroke-width="2" points="434.3177,-45.2111 428.9368,-36.0844 427.4517,-46.5746 434.3177,-45.2111"/>
</g>
<!-- 7 -->
<g id="node8" class="node">
<title>7</title>
<path fill="none" stroke="#d85e56" stroke-width="2" d="M374,-468C374,-468 332,-468 332,-468 326,-468 320,-462 320,-456 320,-456 320,-444 320,-444 320,-438 326,-432 332,-432 332,-432 374,-432 374,-432 380,-432 386,-438 386,-444 386,-444 386,-456 386,-456 386,-462 380,-468 374,-468"/>
<text text-anchor="middle" x="353" y="-447.5" font-family="sans" font-size="10.00" fill="#000000">indexBam</text>
</g>
<!-- 4&#45;&gt;7 -->
<g id="edge17" class="edge">
<title>4&#45;&gt;7</title>
<path fill="none" stroke="#c0c0c0" stroke-width="2" d="M329.8226,-503.8314C333.2109,-495.9617 337.2541,-486.5712 341.0076,-477.8533"/>
<polygon fill="#c0c0c0" stroke="#c0c0c0" stroke-width="2" points="344.3321,-478.9822 345.0721,-468.4133 337.9027,-476.214 344.3321,-478.9822"/>
</g>
<!-- 8 -->
<g id="node9" class="node">
<title>8</title>
<path fill="none" stroke="#d8ac56" stroke-width="2" d="M542,-396C542,-396 408,-396 408,-396 402,-396 396,-390 396,-384 396,-384 396,-372 396,-372 396,-366 402,-360 408,-360 408,-360 542,-360 542,-360 548,-360 554,-366 554,-372 554,-372 554,-384 554,-384 554,-390 548,-396 542,-396"/>
<text text-anchor="middle" x="475" y="-375.5" font-family="sans" font-size="10.00" fill="#000000">featurecounts_allUnstranded</text>
</g>
<!-- 4&#45;&gt;8 -->
<g id="edge18" class="edge">
<title>4&#45;&gt;8</title>
<path fill="none" stroke="#c0c0c0" stroke-width="2" d="M349.3962,-503.7684C363.5597,-493.8479 380.8043,-480.9756 395,-468 416.7754,-448.0962 438.853,-422.7881 454.283,-404.0819"/>
<polygon fill="#c0c0c0" stroke="#c0c0c0" stroke-width="2" points="457.0633,-406.2106 460.6738,-396.25 451.6397,-401.7851 457.0633,-406.2106"/>
</g>
<!-- 11 -->
<g id="node12" class="node">
<title>11</title>
<path fill="none" stroke="#b6d856" stroke-width="2" d="M252,-396C252,-396 220,-396 220,-396 214,-396 208,-390 208,-384 208,-384 208,-372 208,-372 208,-366 214,-360 220,-360 220,-360 252,-360 252,-360 258,-360 264,-366 264,-372 264,-372 264,-384 264,-384 264,-390 258,-396 252,-396"/>
<text text-anchor="middle" x="236" y="-375.5" font-family="sans" font-size="10.00" fill="#000000">idxstats</text>
</g>
<!-- 4&#45;&gt;11 -->
<g id="edge23" class="edge">
<title>4&#45;&gt;11</title>
<path fill="none" stroke="#c0c0c0" stroke-width="2" d="M305.324,-503.8673C296.5397,-493.7701 285.9675,-480.7036 278,-468 265.5547,-448.1568 254.491,-424.0307 246.847,-405.7545"/>
<polygon fill="#c0c0c0" stroke="#c0c0c0" stroke-width="2" points="249.9915,-404.197 242.9651,-396.2672 243.5128,-406.8479 249.9915,-404.197"/>
</g>
<!-- 12 -->
<g id="node13" class="node">
<title>12</title>
<path fill="none" stroke="#8fd856" stroke-width="2" d="M289.5,-324C289.5,-324 258.5,-324 258.5,-324 252.5,-324 246.5,-318 246.5,-312 246.5,-312 246.5,-300 246.5,-300 246.5,-294 252.5,-288 258.5,-288 258.5,-288 289.5,-288 289.5,-288 295.5,-288 301.5,-294 301.5,-300 301.5,-300 301.5,-312 301.5,-312 301.5,-318 295.5,-324 289.5,-324"/>
<text text-anchor="middle" x="274" y="-303.5" font-family="sans" font-size="10.00" fill="#000000">MultiQC</text>
</g>
<!-- 4&#45;&gt;12 -->
<g id="edge25" class="edge">
<title>4&#45;&gt;12</title>
<path fill="none" stroke="#c0c0c0" stroke-width="2" d="M317.9901,-503.9555C309.6254,-466.3144 290.2637,-379.1867 280.2499,-334.1246"/>
<polygon fill="#c0c0c0" stroke="#c0c0c0" stroke-width="2" points="283.6183,-333.1477 278.0322,-324.1451 276.785,-334.6662 283.6183,-333.1477"/>
</g>
<!-- 4&#45;&gt;13 -->
<g id="edge30" class="edge">
<title>4&#45;&gt;13</title>
<path fill="none" stroke="#c0c0c0" stroke-width="2" d="M298.9496,-503.7623C266.5394,-478.119 207.4123,-431.3372 171.1247,-402.6262"/>
<polygon fill="#c0c0c0" stroke="#c0c0c0" stroke-width="2" points="172.8772,-399.5497 162.8633,-396.0896 168.5338,-405.0393 172.8772,-399.5497"/>
</g>
<!-- 4&#45;&gt;14 -->
<g id="edge35" class="edge">
<title>4&#45;&gt;14</title>
<path fill="none" stroke="#c0c0c0" stroke-width="2" d="M286.3041,-515.6528C230.5292,-503.5733 124.5928,-471.4166 81,-396 70.0158,-376.997 86.8597,-300.3442 92,-288 96.1037,-278.1451 102.384,-268.4364 108.7606,-260.0283"/>
<polygon fill="#c0c0c0" stroke="#c0c0c0" stroke-width="2" points="111.5889,-262.0955 115.0923,-252.0966 106.1182,-257.7283 111.5889,-262.0955"/>
</g>
<!-- 18 -->
<g id="node19" class="node">
<title>18</title>
<path fill="none" stroke="#56b1d8" stroke-width="2" d="M675.5,-396C675.5,-396 622.5,-396 622.5,-396 616.5,-396 610.5,-390 610.5,-384 610.5,-384 610.5,-372 610.5,-372 610.5,-366 616.5,-360 622.5,-360 622.5,-360 675.5,-360 675.5,-360 681.5,-360 687.5,-366 687.5,-372 687.5,-372 687.5,-384 687.5,-384 687.5,-390 681.5,-396 675.5,-396"/>
<text text-anchor="middle" x="649" y="-375.5" font-family="sans" font-size="10.00" fill="#000000">ExtractJuncs</text>
</g>
<!-- 4&#45;&gt;18 -->
<g id="edge41" class="edge">
<title>4&#45;&gt;18</title>
<path fill="none" stroke="#c0c0c0" stroke-width="2" d="M357.6924,-518.609C422.8879,-511.8324 558.0259,-494.9149 596,-468 617.3588,-452.8616 631.4833,-426.1732 639.7401,-405.7772"/>
<polygon fill="#c0c0c0" stroke="#c0c0c0" stroke-width="2" points="643.0427,-406.9393 643.328,-396.3483 636.5003,-404.4497 643.0427,-406.9393"/>
</g>
<!-- 5 -->
<g id="node6" class="node">
<title>5</title>
<path fill="none" stroke="#56d8c1" stroke-width="2" d="M261,-612C261,-612 231,-612 231,-612 225,-612 219,-606 219,-600 219,-600 219,-588 219,-588 219,-582 225,-576 231,-576 231,-576 261,-576 261,-576 267,-576 273,-582 273,-588 273,-588 273,-600 273,-600 273,-606 267,-612 261,-612"/>
<text text-anchor="middle" x="246" y="-591.5" font-family="sans" font-size="10.00" fill="#000000">fastp</text>
</g>
<!-- 5&#45;&gt;4 -->
<g id="edge15" class="edge">
<title>5&#45;&gt;4</title>
<path fill="none" stroke="#c0c0c0" stroke-width="2" d="M265.178,-575.8314C274.3588,-567.1337 285.5006,-556.5783 295.4776,-547.1265"/>
<polygon fill="#c0c0c0" stroke="#c0c0c0" stroke-width="2" points="297.9757,-549.5811 302.8281,-540.1628 293.1615,-544.4995 297.9757,-549.5811"/>
</g>
<!-- 5&#45;&gt;12 -->
<g id="edge28" class="edge">
<title>5&#45;&gt;12</title>
<path fill="none" stroke="#c0c0c0" stroke-width="2" d="M218.7281,-577.6464C157.3602,-538.8441 18.4884,-438.5803 81,-360 125.298,-304.3152 169.9128,-347.7153 237,-324 237.0968,-323.9658 237.1937,-323.9314 237.2907,-323.8968"/>
<polygon fill="#c0c0c0" stroke="#c0c0c0" stroke-width="2" points="238.4207,-327.2144 246.4088,-320.2545 235.824,-320.7138 238.4207,-327.2144"/>
</g>
<!-- 6 -->
<g id="node7" class="node">
<title>6</title>
<path fill="none" stroke="#56d8a9" stroke-width="2" d="M267.5,-684C267.5,-684 224.5,-684 224.5,-684 218.5,-684 212.5,-678 212.5,-672 212.5,-672 212.5,-660 212.5,-660 212.5,-654 218.5,-648 224.5,-648 224.5,-648 267.5,-648 267.5,-648 273.5,-648 279.5,-654 279.5,-660 279.5,-660 279.5,-672 279.5,-672 279.5,-678 273.5,-684 267.5,-684"/>
<text text-anchor="middle" x="246" y="-663.5" font-family="sans" font-size="10.00" fill="#000000">CopyFastq</text>
</g>
<!-- 6&#45;&gt;5 -->
<g id="edge16" class="edge">
<title>6&#45;&gt;5</title>
<path fill="none" stroke="#c0c0c0" stroke-width="2" d="M246,-647.8314C246,-640.131 246,-630.9743 246,-622.4166"/>
<polygon fill="#c0c0c0" stroke="#c0c0c0" stroke-width="2" points="249.5001,-622.4132 246,-612.4133 242.5001,-622.4133 249.5001,-622.4132"/>
</g>
<!-- 7&#45;&gt;0 -->
<g id="edge2" class="edge">
<title>7&#45;&gt;0</title>
<path fill="none" stroke="#c0c0c0" stroke-width="2" d="M356.108,-431.8777C360.5016,-404.6417 368,-351.4948 368,-306 368,-306 368,-306 368,-162 368,-118.7597 390.4945,-73.0187 407.2212,-44.9832"/>
<polygon fill="#c0c0c0" stroke="#c0c0c0" stroke-width="2" points="410.3756,-46.5353 412.6318,-36.1834 404.4126,-42.8688 410.3756,-46.5353"/>
</g>
<!-- 7&#45;&gt;8 -->
<g id="edge19" class="edge">
<title>7&#45;&gt;8</title>
<path fill="none" stroke="#c0c0c0" stroke-width="2" d="M383.7858,-431.8314C399.3903,-422.6221 418.524,-411.3301 435.2303,-401.4706"/>
<polygon fill="#c0c0c0" stroke="#c0c0c0" stroke-width="2" points="437.3909,-404.2596 444.2241,-396.1628 433.8331,-398.2312 437.3909,-404.2596"/>
</g>
<!-- 7&#45;&gt;11 -->
<g id="edge24" class="edge">
<title>7&#45;&gt;11</title>
<path fill="none" stroke="#c0c0c0" stroke-width="2" d="M323.476,-431.8314C308.1682,-422.4112 289.3192,-410.8118 273.0428,-400.7955"/>
<polygon fill="#c0c0c0" stroke="#c0c0c0" stroke-width="2" points="274.6547,-397.6779 264.3038,-395.4177 270.986,-403.6395 274.6547,-397.6779"/>
</g>
<!-- 7&#45;&gt;13 -->
<g id="edge32" class="edge">
<title>7&#45;&gt;13</title>
<path fill="none" stroke="#c0c0c0" stroke-width="2" d="M319.7188,-438.75C287.6833,-427.9211 238.5166,-411.3014 199.702,-398.1809"/>
<polygon fill="#c0c0c0" stroke="#c0c0c0" stroke-width="2" points="200.6678,-394.8129 190.0736,-394.9263 198.4262,-401.4443 200.6678,-394.8129"/>
</g>
<!-- 7&#45;&gt;14 -->
<g id="edge36" class="edge">
<title>7&#45;&gt;14</title>
<path fill="none" stroke="#c0c0c0" stroke-width="2" d="M353.6888,-431.9691C353.9339,-398.8623 349.5624,-328.1093 311,-288 298.8161,-275.3274 264.8974,-263.7114 229.8176,-254.5265"/>
<polygon fill="#c0c0c0" stroke="#c0c0c0" stroke-width="2" points="230.4642,-251.0795 219.9095,-252.0016 228.7355,-257.8627 230.4642,-251.0795"/>
</g>
<!-- 7&#45;&gt;18 -->
<g id="edge42" class="edge">
<title>7&#45;&gt;18</title>
<path fill="none" stroke="#c0c0c0" stroke-width="2" d="M386.0934,-441.9503C438.1458,-429.2888 539.4398,-404.6498 599.9677,-389.9268"/>
<polygon fill="#c0c0c0" stroke="#c0c0c0" stroke-width="2" points="601.1564,-393.2398 610.0458,-387.4753 599.5019,-386.4381 601.1564,-393.2398"/>
</g>
<!-- 8&#45;&gt;0 -->
<g id="edge8" class="edge">
<title>8&#45;&gt;0</title>
<path fill="none" stroke="#c0c0c0" stroke-width="2" d="M456.5449,-359.9708C447.3852,-350.1056 436.8443,-337.2218 430,-324 410.969,-287.2359 406,-275.3978 406,-234 406,-234 406,-234 406,-162 406,-121.5282 413.468,-75.2037 419.04,-46.2725"/>
<polygon fill="#c0c0c0" stroke="#c0c0c0" stroke-width="2" points="422.5483,-46.5746 421.0632,-36.0844 415.6823,-45.2111 422.5483,-46.5746"/>
</g>
<!-- 8&#45;&gt;12 -->
<g id="edge29" class="edge">
<title>8&#45;&gt;12</title>
<path fill="none" stroke="#c0c0c0" stroke-width="2" d="M424.5387,-359.9243C389.3862,-347.3324 343.2681,-330.8124 311.3858,-319.3919"/>
<polygon fill="#c0c0c0" stroke="#c0c0c0" stroke-width="2" points="312.1611,-315.9519 301.5666,-315.8746 309.8005,-322.5419 312.1611,-315.9519"/>
</g>
<!-- 9&#45;&gt;8 -->
<g id="edge20" class="edge">
<title>9&#45;&gt;8</title>
<path fill="none" stroke="#c0c0c0" stroke-width="2" d="M1017.3796,-445.8008C939.6963,-437.0667 755.9329,-416.0809 602,-396 589.8032,-394.4089 576.9575,-392.6665 564.3106,-390.912"/>
<polygon fill="#c0c0c0" stroke="#c0c0c0" stroke-width="2" points="564.6146,-387.4206 554.2268,-389.5051 563.6472,-394.3535 564.6146,-387.4206"/>
</g>
<!-- 9&#45;&gt;23 -->
<g id="edge54" class="edge">
<title>9&#45;&gt;23</title>
<path fill="none" stroke="#c0c0c0" stroke-width="2" d="M1055,-431.9555C1055,-394.3938 1055,-307.5541 1055,-262.4103"/>
<polygon fill="#c0c0c0" stroke="#c0c0c0" stroke-width="2" points="1058.5001,-262.145 1055,-252.1451 1051.5001,-262.1451 1058.5001,-262.145"/>
</g>
<!-- 10 -->
<g id="node11" class="node">
<title>10</title>
<path fill="none" stroke="#569ad8" stroke-width="2" d="M216.5,-324C216.5,-324 113.5,-324 113.5,-324 107.5,-324 101.5,-318 101.5,-312 101.5,-312 101.5,-300 101.5,-300 101.5,-294 107.5,-288 113.5,-288 113.5,-288 216.5,-288 216.5,-288 222.5,-288 228.5,-294 228.5,-300 228.5,-300 228.5,-312 228.5,-312 228.5,-318 222.5,-324 216.5,-324"/>
<text text-anchor="middle" x="165" y="-303.5" font-family="sans" font-size="10.00" fill="#000000">CountReadsPerSample</text>
</g>
<!-- 10&#45;&gt;0 -->
<g id="edge5" class="edge">
<title>10&#45;&gt;0</title>
<path fill="none" stroke="#c0c0c0" stroke-width="2" d="M221.5036,-287.8749C240.0724,-279.5071 259.4128,-267.8259 273,-252 327.7508,-188.2282 278.1143,-137.3269 331,-72 345.96,-53.5207 369.0455,-40.1297 388.5942,-31.3051"/>
<polygon fill="#c0c0c0" stroke="#c0c0c0" stroke-width="2" points="390.0419,-34.4926 397.8556,-27.3375 387.2853,-28.0582 390.0419,-34.4926"/>
</g>
<!-- 10&#45;&gt;14 -->
<g id="edge34" class="edge">
<title>10&#45;&gt;14</title>
<path fill="none" stroke="#c0c0c0" stroke-width="2" d="M156.6727,-287.8314C153.027,-279.8771 148.6691,-270.369 144.6373,-261.5723"/>
<polygon fill="#c0c0c0" stroke="#c0c0c0" stroke-width="2" points="147.7877,-260.0456 140.4394,-252.4133 141.4243,-262.9622 147.7877,-260.0456"/>
</g>
<!-- 11&#45;&gt;10 -->
<g id="edge22" class="edge">
<title>11&#45;&gt;10</title>
<path fill="none" stroke="#c0c0c0" stroke-width="2" d="M218.0837,-359.8314C209.6558,-351.2848 199.459,-340.9443 190.264,-331.6198"/>
<polygon fill="#c0c0c0" stroke="#c0c0c0" stroke-width="2" points="192.6711,-329.0761 183.1575,-324.4133 187.6869,-333.9912 192.6711,-329.0761"/>
</g>
<!-- 11&#45;&gt;12 -->
<g id="edge27" class="edge">
<title>11&#45;&gt;12</title>
<path fill="none" stroke="#c0c0c0" stroke-width="2" d="M245.589,-359.8314C249.8317,-351.7925 254.9121,-342.1666 259.596,-333.2918"/>
<polygon fill="#c0c0c0" stroke="#c0c0c0" stroke-width="2" points="262.7096,-334.8908 264.2819,-324.4133 256.5189,-331.6235 262.7096,-334.8908"/>
</g>
<!-- 12&#45;&gt;0 -->
<g id="edge7" class="edge">
<title>12&#45;&gt;0</title>
<path fill="none" stroke="#c0c0c0" stroke-width="2" d="M286.5747,-287.6712C293.0941,-277.5166 300.7655,-264.4578 306,-252 338.0727,-175.6688 307.8955,-140.7712 354,-72 362.9685,-58.6222 376.3679,-47.2017 389.1179,-38.3562"/>
<polygon fill="#c0c0c0" stroke="#c0c0c0" stroke-width="2" points="391.3529,-41.0751 397.7787,-32.6512 387.5023,-35.2293 391.3529,-41.0751"/>
</g>
<!-- 13&#45;&gt;12 -->
<g id="edge26" class="edge">
<title>13&#45;&gt;12</title>
<path fill="none" stroke="#c0c0c0" stroke-width="2" d="M173.8139,-359.8314C193.0903,-349.4739 217.2698,-336.4819 237.0451,-325.8563"/>
<polygon fill="#c0c0c0" stroke="#c0c0c0" stroke-width="2" points="238.92,-328.8223 246.0723,-321.0059 235.6068,-322.656 238.92,-328.8223"/>
</g>
<!-- 14&#45;&gt;0 -->
<g id="edge10" class="edge">
<title>14&#45;&gt;0</title>
<path fill="none" stroke="#c0c0c0" stroke-width="2" d="M143.8722,-215.8075C166.3096,-182.7517 218.0987,-112.5139 278,-72 311.8914,-49.0778 356.7346,-34.4447 387.9421,-26.2763"/>
<polygon fill="#c0c0c0" stroke="#c0c0c0" stroke-width="2" points="389.1249,-29.5877 397.9672,-23.7513 387.4152,-22.7997 389.1249,-29.5877"/>
</g>
<!-- 15 -->
<g id="node16" class="node">
<title>15</title>
<path fill="none" stroke="#88d856" stroke-width="2" d="M550,-108C550,-108 488,-108 488,-108 482,-108 476,-102 476,-96 476,-96 476,-84 476,-84 476,-78 482,-72 488,-72 488,-72 550,-72 550,-72 556,-72 562,-78 562,-84 562,-84 562,-96 562,-96 562,-102 556,-108 550,-108"/>
<text text-anchor="middle" x="519" y="-87.5" font-family="sans" font-size="10.00" fill="#000000">bgzip_PSI_bed</text>
</g>
<!-- 15&#45;&gt;0 -->
<g id="edge3" class="edge">
<title>15&#45;&gt;0</title>
<path fill="none" stroke="#c0c0c0" stroke-width="2" d="M495.2798,-71.8314C483.5906,-62.8779 469.3312,-51.9558 456.7191,-42.2955"/>
<polygon fill="#c0c0c0" stroke="#c0c0c0" stroke-width="2" points="458.7797,-39.4651 448.7126,-36.1628 454.5231,-45.0222 458.7797,-39.4651"/>
</g>
<!-- 16 -->
<g id="node17" class="node">
<title>16</title>
<path fill="none" stroke="#567bd8" stroke-width="2" d="M559.5,-180C559.5,-180 484.5,-180 484.5,-180 478.5,-180 472.5,-174 472.5,-168 472.5,-168 472.5,-156 472.5,-156 472.5,-150 478.5,-144 484.5,-144 484.5,-144 559.5,-144 559.5,-144 565.5,-144 571.5,-150 571.5,-156 571.5,-156 571.5,-168 571.5,-168 571.5,-174 565.5,-180 559.5,-180"/>
<text text-anchor="middle" x="522" y="-159.5" font-family="sans" font-size="10.00" fill="#000000">leafcutter_to_PSI</text>
</g>
<!-- 16&#45;&gt;15 -->
<g id="edge37" class="edge">
<title>16&#45;&gt;15</title>
<path fill="none" stroke="#c0c0c0" stroke-width="2" d="M521.243,-143.8314C520.9221,-136.131 520.5406,-126.9743 520.184,-118.4166"/>
<polygon fill="#c0c0c0" stroke="#c0c0c0" stroke-width="2" points="523.6806,-118.2589 519.7672,-108.4133 516.6867,-118.5503 523.6806,-118.2589"/>
</g>
<!-- 17 -->
<g id="node18" class="node">
<title>17</title>
<path fill="none" stroke="#d89556" stroke-width="2" d="M590,-252C590,-252 512,-252 512,-252 506,-252 500,-246 500,-240 500,-240 500,-228 500,-228 500,-222 506,-216 512,-216 512,-216 590,-216 590,-216 596,-216 602,-222 602,-228 602,-228 602,-240 602,-240 602,-246 596,-252 590,-252"/>
<text text-anchor="middle" x="551" y="-231.5" font-family="sans" font-size="10.00" fill="#000000">leafcutter_cluster</text>
</g>
<!-- 17&#45;&gt;16 -->
<g id="edge38" class="edge">
<title>17&#45;&gt;16</title>
<path fill="none" stroke="#c0c0c0" stroke-width="2" d="M543.6821,-215.8314C540.5124,-207.9617 536.73,-198.5712 533.2187,-189.8533"/>
<polygon fill="#c0c0c0" stroke="#c0c0c0" stroke-width="2" points="536.3992,-188.3815 529.4165,-180.4133 529.9061,-190.9968 536.3992,-188.3815"/>
</g>
<!-- 21 -->
<g id="node22" class="node">
<title>21</title>
<path fill="none" stroke="#56d8c9" stroke-width="2" d="M879.5,-180C879.5,-180 640.5,-180 640.5,-180 634.5,-180 628.5,-174 628.5,-168 628.5,-168 628.5,-156 628.5,-156 628.5,-150 634.5,-144 640.5,-144 640.5,-144 879.5,-144 879.5,-144 885.5,-144 891.5,-150 891.5,-156 891.5,-156 891.5,-168 891.5,-168 891.5,-174 885.5,-180 879.5,-180"/>
<text text-anchor="middle" x="760" y="-159.5" font-family="sans" font-size="10.00" fill="#000000">ConvertLeacfutterJuncNames_To_True_Bed_Coords</text>
</g>
<!-- 17&#45;&gt;21 -->
<g id="edge47" class="edge">
<title>17&#45;&gt;21</title>
<path fill="none" stroke="#c0c0c0" stroke-width="2" d="M602.1272,-216.3868C631.0244,-206.4318 667.365,-193.9125 697.8932,-183.3956"/>
<polygon fill="#c0c0c0" stroke="#c0c0c0" stroke-width="2" points="699.2693,-186.6235 707.5839,-180.0572 696.9892,-180.0052 699.2693,-186.6235"/>
</g>
<!-- 18&#45;&gt;17 -->
<g id="edge39" class="edge">
<title>18&#45;&gt;17</title>
<path fill="none" stroke="#c0c0c0" stroke-width="2" d="M610.1762,-364.3449C567.1807,-349.1341 503.6437,-326.3549 502,-324 487.6553,-303.4485 503.9364,-278.2617 521.481,-259.7646"/>
<polygon fill="#c0c0c0" stroke="#c0c0c0" stroke-width="2" points="524.379,-261.8178 528.9918,-252.2798 519.4379,-256.8594 524.379,-261.8178"/>
</g>
<!-- 19 -->
<g id="node20" class="node">
<title>19</title>
<path fill="none" stroke="#59d856" stroke-width="2" d="M635.5,-324C635.5,-324 522.5,-324 522.5,-324 516.5,-324 510.5,-318 510.5,-312 510.5,-312 510.5,-300 510.5,-300 510.5,-294 516.5,-288 522.5,-288 522.5,-288 635.5,-288 635.5,-288 641.5,-288 647.5,-294 647.5,-300 647.5,-300 647.5,-312 647.5,-312 647.5,-318 641.5,-324 635.5,-324"/>
<text text-anchor="middle" x="579" y="-303.5" font-family="sans" font-size="10.00" fill="#000000">make_leafcutter_juncfile</text>
</g>
<!-- 18&#45;&gt;19 -->
<g id="edge43" class="edge">
<title>18&#45;&gt;19</title>
<path fill="none" stroke="#c0c0c0" stroke-width="2" d="M631.336,-359.8314C623.0268,-351.2848 612.9736,-340.9443 603.9082,-331.6198"/>
<polygon fill="#c0c0c0" stroke="#c0c0c0" stroke-width="2" points="606.3821,-329.1435 596.9018,-324.4133 601.3631,-334.023 606.3821,-329.1435"/>
</g>
<!-- 24 -->
<g id="node25" class="node">
<title>24</title>
<path fill="none" stroke="#56d0d8" stroke-width="2" d="M812,-324C812,-324 678,-324 678,-324 672,-324 666,-318 666,-312 666,-312 666,-300 666,-300 666,-294 672,-288 678,-288 678,-288 812,-288 812,-288 818,-288 824,-294 824,-300 824,-300 824,-312 824,-312 824,-318 818,-324 812,-324"/>
<text text-anchor="middle" x="745" y="-303.5" font-family="sans" font-size="10.00" fill="#000000">ConcatJuncFilesAndKeepUniq</text>
</g>
<!-- 18&#45;&gt;24 -->
<g id="edge55" class="edge">
<title>18&#45;&gt;24</title>
<path fill="none" stroke="#c0c0c0" stroke-width="2" d="M673.2249,-359.8314C685.1628,-350.8779 699.7256,-339.9558 712.606,-330.2955"/>
<polygon fill="#c0c0c0" stroke="#c0c0c0" stroke-width="2" points="714.8829,-332.9629 720.7829,-324.1628 710.6829,-327.3629 714.8829,-332.9629"/>
</g>
<!-- 19&#45;&gt;17 -->
<g id="edge40" class="edge">
<title>19&#45;&gt;17</title>
<path fill="none" stroke="#c0c0c0" stroke-width="2" d="M571.9344,-287.8314C568.874,-279.9617 565.2221,-270.5712 561.8318,-261.8533"/>
<polygon fill="#c0c0c0" stroke="#c0c0c0" stroke-width="2" points="565.0473,-260.4647 558.1607,-252.4133 558.5232,-263.0019 565.0473,-260.4647"/>
</g>
<!-- 20&#45;&gt;0 -->
<g id="edge4" class="edge">
<title>20&#45;&gt;0</title>
<path fill="none" stroke="#c0c0c0" stroke-width="2" d="M736.0812,-71.9707C646.8861,-56.4959 523.3478,-35.0627 462.2662,-24.4655"/>
<polygon fill="#c0c0c0" stroke="#c0c0c0" stroke-width="2" points="462.7622,-20.9993 452.3111,-22.7383 461.5656,-27.8963 462.7622,-20.9993"/>
</g>
<!-- 21&#45;&gt;20 -->
<g id="edge46" class="edge">
<title>21&#45;&gt;20</title>
<path fill="none" stroke="#c0c0c0" stroke-width="2" d="M780.1874,-143.8314C789.8514,-135.1337 801.5796,-124.5783 812.0816,-115.1265"/>
<polygon fill="#c0c0c0" stroke="#c0c0c0" stroke-width="2" points="814.7275,-117.454 819.8191,-108.1628 810.0447,-112.251 814.7275,-117.454"/>
</g>
<!-- 22&#45;&gt;0 -->
<g id="edge6" class="edge">
<title>22&#45;&gt;0</title>
<path fill="none" stroke="#c0c0c0" stroke-width="2" d="M1205.9665,-143.9266C1146.6504,-123.2435 1044.4258,-89.9239 954,-72 771.8818,-35.9012 549.4294,-23.1939 462.4108,-19.4043"/>
<polygon fill="#c0c0c0" stroke="#c0c0c0" stroke-width="2" points="462.3806,-15.9 452.242,-18.9756 462.0856,-22.8938 462.3806,-15.9"/>
</g>
<!-- 23&#45;&gt;22 -->
<g id="edge48" class="edge">
<title>23&#45;&gt;22</title>
<path fill="none" stroke="#c0c0c0" stroke-width="2" d="M1105.4613,-215.9243C1132.9392,-206.0815 1167.1172,-193.8386 1195.9588,-183.5073"/>
<polygon fill="#c0c0c0" stroke="#c0c0c0" stroke-width="2" points="1197.284,-186.7505 1205.5179,-180.0831 1194.9233,-180.1605 1197.284,-186.7505"/>
</g>
<!-- 24&#45;&gt;23 -->
<g id="edge53" class="edge">
<title>24&#45;&gt;23</title>
<path fill="none" stroke="#c0c0c0" stroke-width="2" d="M822.826,-287.9243C866.8545,-277.6983 922.0368,-264.8818 967.5554,-254.3097"/>
<polygon fill="#c0c0c0" stroke="#c0c0c0" stroke-width="2" points="968.4621,-257.6924 977.4109,-252.0207 966.8784,-250.8739 968.4621,-257.6924"/>
</g>
<!-- 25&#45;&gt;22 -->
<g id="edge51" class="edge">
<title>25&#45;&gt;22</title>
<path fill="none" stroke="#c0c0c0" stroke-width="2" d="M1289.4776,-503.8955C1284.4982,-476.6824 1276,-423.5642 1276,-378 1276,-378 1276,-378 1276,-306 1276,-265.3124 1268.0696,-218.7676 1262.1963,-189.8757"/>
<polygon fill="#c0c0c0" stroke="#c0c0c0" stroke-width="2" points="1265.6191,-189.144 1260.144,-180.0735 1258.7676,-190.5786 1265.6191,-189.144"/>
</g>
</g>
</svg>
